# xmcd
#
# Track frame offsets:
#	150
#	16539
#	32864
#	46751
#	75841
#
# Disc length: 1552 seconds
#
# Revision: 0
# Processed by: cddbd v1.5.2PL0 Copyright (c) Steve Scherf et al.
# Submitted via: EasyCDDAExtractor 10.0.3.1
#
DISCID=23060e05
DTITLE=SANDY and JUNIOR 
DYEAR=1900
DGENRE=
TTITLE0=Love Never Fails
TTITLE1=Love Never Fails - SPANGLISH VERSION
TTITLE2=Love Never Fails - SPANISH FLY REMIX - RADIO VERSION
TTITLE3=Nao Da Pra Nao Pensar
TTITLE4=VIDEO
EXTD=
EXTT0=
EXTT1=
EXTT2=
EXTT3=
EXTT4=
PLAYORDER=
